<svg width="132" height="19" viewBox="0 0 132 19" fill="none" xmlns="http://www.w3.org/2000/svg">
<path d="M4.19141 1.8999V5.59547H8.80078V16.868H13.3293V5.59547H17.9589V1.8999H4.19141Z" fill="#2D3A20"/>
<path d="M19.6797 1.8999H31.7894V5.09998H24.2284V7.47423H31.2435V10.5298H24.2284V13.4821H32.0118V16.868H19.6797V1.8999Z" fill="#2D3A20"/>
<path fill-rule="evenodd" clip-rule="evenodd" d="M42.8674 14.3899H37.7324L37.0046 16.8468H32.375L37.8941 1.87866H42.8472L48.3461 16.8468H43.6154L42.8674 14.3899ZM41.9172 11.1486L40.3201 5.76004L38.723 11.1486H41.9172Z" fill="#2D3A20"/>
<path d="M48.832 1.8999H54.8161L57.0804 11.0046L59.3648 1.8999H65.3085V16.868H61.6089V5.45095L58.7381 16.868H55.3822L52.5317 5.45095V16.868H48.832V1.8999Z" fill="#2D3A20"/>
<path d="M67.793 16.8678V1.89966H69.7338V8.07271H77.2947V1.89966H79.2355V16.8678H77.2947V9.82759H69.7338V16.8678H67.793Z" fill="#2D3A20"/>
<path fill-rule="evenodd" clip-rule="evenodd" d="M88.9215 13.3582L90.7814 13.606C90.4983 14.7208 89.9525 15.5673 89.1641 16.1867C88.3756 16.806 87.3648 17.0951 86.1316 17.0951C84.5749 17.0951 83.3619 16.5996 82.4522 15.6292C81.5424 14.6589 81.0977 13.2963 81.0977 11.5207C81.0977 9.70393 81.5626 8.27938 82.4724 7.28839C83.3821 6.27675 84.5749 5.78125 86.0507 5.78125C87.4659 5.78125 88.6182 6.27675 89.5279 7.26774C90.4175 8.25873 90.8825 9.64199 90.8825 11.4175C90.8825 11.5207 90.8825 11.6859 90.8825 11.913H82.9778C83.0384 13.1105 83.3821 14.0189 83.9684 14.6382C84.5547 15.2782 85.3027 15.5879 86.1922 15.5879C86.8594 15.5879 87.4052 15.4021 87.8702 15.0511C88.2947 14.7002 88.6586 14.1427 88.9215 13.3582ZM83.0384 10.4059H88.9417C88.8608 9.49747 88.6384 8.81616 88.2543 8.36196C87.6882 7.66 86.9402 7.30903 86.0305 7.30903C85.2016 7.30903 84.5143 7.59807 83.9482 8.1555C83.4023 8.71293 83.0991 9.45617 83.0384 10.4059Z" fill="#2D3A20"/>
<path fill-rule="evenodd" clip-rule="evenodd" d="M99.4314 15.5057C98.7642 16.0838 98.1173 16.4967 97.5108 16.7444C96.8841 16.9922 96.2372 17.0954 95.5296 17.0954C94.357 17.0954 93.4675 16.8064 92.8408 16.2283C92.2141 15.6502 91.8906 14.907 91.8906 13.9986C91.8906 13.4618 92.0119 12.9869 92.2545 12.5534C92.4971 12.1198 92.8004 11.7688 93.1845 11.5004C93.5686 11.2321 93.9931 11.0256 94.4783 10.9017C94.822 10.7985 95.3679 10.7159 96.0755 10.6333C97.531 10.4475 98.6025 10.2411 99.2899 9.99331C99.2899 9.74556 99.3101 9.5804 99.3101 9.51846C99.3101 8.77522 99.1484 8.23843 98.8047 7.94939C98.3397 7.53648 97.6523 7.33002 96.7426 7.33002C95.8935 7.33002 95.2668 7.47455 94.8625 7.78423C94.4581 8.09391 94.1549 8.6307 93.9729 9.39459L92.2141 9.14684C92.3758 8.38295 92.6386 7.76359 93.0025 7.28874C93.3664 6.81389 93.8921 6.44226 94.5996 6.19451C95.287 5.94676 96.0957 5.80225 97.0054 5.80225C97.9152 5.80225 98.6429 5.90548 99.2292 6.13258C99.7953 6.35968 100.22 6.62807 100.483 6.9584C100.745 7.28873 100.927 7.70165 101.049 8.21779C101.109 8.52747 101.13 9.0849 101.13 9.91073V12.3469C101.13 14.0399 101.17 15.1341 101.251 15.5883C101.332 16.0425 101.473 16.476 101.696 16.889H99.8155C99.5931 16.476 99.4718 16.0218 99.4314 15.5057ZM99.2697 11.4385C98.6227 11.7069 97.6321 11.934 96.318 12.1198C95.57 12.223 95.0444 12.3469 94.7412 12.4914C94.4379 12.636 94.1953 12.8218 94.0336 13.0902C93.8718 13.3586 93.791 13.6476 93.791 13.9573C93.791 14.4528 93.9729 14.845 94.3368 15.1754C94.7007 15.5057 95.2264 15.6709 95.9339 15.6709C96.6213 15.6709 97.248 15.5263 97.7939 15.2167C98.3397 14.907 98.7238 14.4941 98.9866 13.9573C99.1888 13.5444 99.2697 12.9456 99.2697 12.1405V11.4385Z" fill="#2D3A20"/>
<path d="M105.057 1.90039H103.258V16.8685H105.057V1.90039Z" fill="#2D3A20"/>
<path d="M111.179 15.2166L111.422 16.8476C110.916 16.9508 110.471 17.0128 110.067 17.0128C109.42 17.0128 108.915 16.9095 108.551 16.7031C108.187 16.4966 107.944 16.2076 107.803 15.8772C107.661 15.5263 107.58 14.8037 107.58 13.7094V7.45382H106.246V6.00862H107.58V3.32469L109.38 2.23047V6.00862H111.179V7.43317H109.38V13.792C109.38 14.3082 109.42 14.6592 109.481 14.8037C109.541 14.9482 109.642 15.0721 109.784 15.1546C109.926 15.2372 110.128 15.2785 110.39 15.2785C110.593 15.2992 110.855 15.2785 111.179 15.2166Z" fill="#2D3A20"/>
<path d="M112.941 16.8685V1.90039H114.741V7.28891C115.57 6.29792 116.621 5.80242 117.894 5.80242C118.683 5.80242 119.35 5.96758 119.936 6.27726C120.523 6.58695 120.927 7.02051 121.17 7.57794C121.412 8.13538 121.533 8.94055 121.533 10.0141V16.8685H119.734V10.0141C119.734 9.10572 119.532 8.42442 119.148 8.0115C118.764 7.59859 118.218 7.39213 117.51 7.39213C116.985 7.39213 116.479 7.53665 116.014 7.80505C115.549 8.09409 115.206 8.4657 115.024 8.9612C114.822 9.43605 114.72 10.1174 114.72 10.9638V16.8891H112.941V16.8685Z" fill="#2D3A20"/>
<path fill-rule="evenodd" clip-rule="evenodd" d="M124.2 14.5352C124.422 14.5352 124.625 14.5971 124.847 14.7003C125.049 14.8242 125.211 14.9687 125.332 15.1958C125.454 15.4023 125.514 15.6294 125.514 15.8565C125.514 16.0836 125.454 16.3107 125.352 16.5171C125.231 16.7236 125.069 16.8888 124.867 17.0126C124.665 17.1365 124.443 17.1778 124.22 17.1778C123.998 17.1778 123.776 17.1159 123.573 17.0126C123.371 16.8888 123.209 16.7236 123.088 16.5171C122.967 16.3107 122.906 16.0836 122.906 15.8565C122.906 15.6294 122.967 15.4023 123.088 15.1958C123.209 14.9894 123.371 14.8242 123.573 14.7003C123.755 14.5765 123.978 14.5352 124.2 14.5352ZM124.2 14.7416C124.018 14.7416 123.836 14.7829 123.674 14.8861C123.493 14.9894 123.371 15.1132 123.27 15.299C123.169 15.4849 123.129 15.6707 123.129 15.8565C123.129 16.0423 123.169 16.2281 123.27 16.4139C123.371 16.5791 123.493 16.7236 123.674 16.8268C123.856 16.9301 124.018 16.9713 124.22 16.9713C124.402 16.9713 124.584 16.9301 124.766 16.8268C124.948 16.7236 125.069 16.5997 125.17 16.4139C125.272 16.2281 125.312 16.0629 125.312 15.8565C125.312 15.6707 125.272 15.4849 125.17 15.299C125.069 15.1132 124.948 14.9894 124.766 14.8861C124.544 14.7829 124.382 14.7416 124.2 14.7416ZM123.634 16.5791V15.1545H124.119C124.281 15.1545 124.402 15.1752 124.483 15.1958C124.564 15.2165 124.625 15.2784 124.665 15.3403C124.706 15.4023 124.726 15.4849 124.726 15.5468C124.726 15.65 124.685 15.7326 124.625 15.8152C124.544 15.8978 124.463 15.9391 124.342 15.9391C124.382 15.9597 124.422 15.9804 124.463 16.0216C124.524 16.0836 124.584 16.1662 124.665 16.3107L124.827 16.5997H124.544L124.422 16.3726C124.321 16.1868 124.241 16.0836 124.18 16.0423C124.139 16.001 124.079 16.001 123.998 16.001H123.856V16.5997H123.634V16.5791ZM123.856 15.7739H124.139C124.261 15.7739 124.362 15.7533 124.402 15.712C124.443 15.6707 124.483 15.6294 124.483 15.5468C124.483 15.5055 124.463 15.4642 124.443 15.4436C124.422 15.4023 124.382 15.3816 124.342 15.361C124.301 15.3403 124.22 15.3403 124.119 15.3403H123.856V15.7739Z" fill="#2D3A20"/>
</svg>
