<svg width="90" height="20" viewBox="0 0 90 20" fill="none" xmlns="http://www.w3.org/2000/svg">
<g clip-path="url(#clip0_5497_6692)">
<path d="M41.2044 11.332V14.9854H36.5428V11.332H35.6328V19.6141H36.5428V15.8556H41.2044V19.6141H42.1128V11.332H41.2044Z" fill="#2D3A20"/>
<path d="M79.7371 11.332V14.9854H75.0813V11.332H74.168V19.6141H75.0813V15.8556H79.7371V19.6141H80.6504V11.332H79.7371Z" fill="#2D3A20"/>
<path d="M44.1875 11.332V19.6141H50.081V18.7682H45.0975V15.8322H49.5044V14.9854H45.0975V12.1797H50.022V11.332H44.1875Z" fill="#2D3A20"/>
<path d="M54.9788 11.332L51.2969 19.6141H52.2331L53.1898 17.4416H57.5835L58.5288 19.6141H59.5093L55.8298 11.332H54.9788ZM55.3916 12.415L57.2281 16.6073H53.5453L55.3916 12.415Z" fill="#2D3A20"/>
<path d="M60.9297 11.332V19.6141H66.3833V18.7565H61.8405V11.332H60.9297Z" fill="#2D3A20"/>
<path d="M66.1172 11.332V12.1914H68.8276V19.6141H69.7499V12.1914H72.4596V11.332H66.1172Z" fill="#2D3A20"/>
<path d="M50.7862 4.61342V4.58975C50.7862 3.40337 49.9474 2.36969 48.7106 2.36969C47.4893 2.36969 46.6693 3.38003 46.6693 4.5664V4.59004C46.6693 5.77559 47.5122 6.80927 48.7335 6.80927C49.9662 6.80927 50.7862 5.7998 50.7862 4.61342ZM44.375 4.61342V4.58975C44.375 2.22785 46.2426 0.313965 48.7335 0.313965C51.2252 0.313965 53.0707 2.20701 53.0707 4.5664V4.59004C53.0707 6.94945 51.2015 8.86503 48.7106 8.86503C46.2188 8.86503 44.375 6.97449 44.375 4.61342Z" fill="#2D3A20"/>
<path d="M37.7502 3.97824L38.2572 4.75579L41.1471 8.53687C41.2281 8.64377 41.401 8.73029 41.5345 8.73029H43.0155C43.1457 8.73029 43.2546 8.62529 43.2546 8.49663V8.26301V0.751772C43.2546 0.618153 43.1457 0.507324 43.0155 0.507324H41.0406V3.82953L41.1372 5.03925L40.6286 4.29923L37.8567 0.687539C37.7822 0.589867 37.6126 0.507324 37.4816 0.507324H35.8736C35.7409 0.507324 35.6328 0.589867 35.6328 0.687539V8.48574C35.6328 8.61912 35.7409 8.73018 35.8736 8.73018H37.8461V5.22112L37.7502 3.97824Z" fill="#2D3A20"/>
<path d="M72.3621 3.97824L72.8658 4.75579L75.7581 8.53687C75.8384 8.64377 76.012 8.73029 76.1447 8.73029H77.6248C77.7567 8.73029 77.864 8.62529 77.864 8.49663V8.26301V0.751772C77.864 0.618153 77.7567 0.507324 77.6248 0.507324H75.6524V3.82953L75.7482 5.03925L75.2396 4.29923L72.4669 0.687539C72.3907 0.589867 72.222 0.507324 72.0917 0.507324H70.483C70.3519 0.507324 70.2422 0.589867 70.2422 0.687539V8.48574C70.2422 8.61912 70.3519 8.73018 70.483 8.73018H72.4562V5.22112L72.3621 3.97824Z" fill="#2D3A20"/>
<path d="M59.3752 0.509277C59.2441 0.509277 59.1008 0.610966 59.0566 0.737017L57.805 4.2853L57.316 5.73283L56.8261 4.28613L55.577 0.737017C55.5327 0.610966 55.3894 0.509277 55.2567 0.509277H53.0664L56.3347 8.73048H58.2956L61.5655 0.509277H59.3752Z" fill="#2D3A20"/>
<path d="M64.1427 5.51142L64.8193 3.75518L65.038 3.06857L65.2518 3.74601L65.93 5.51142H64.1427ZM63.9797 0.509766L60.5312 8.73096H62.6806C62.81 8.73096 62.9591 8.62927 63.0066 8.50582L63.5013 7.27359H66.5714L67.0628 8.50582C67.1144 8.62927 67.2643 8.73096 67.3946 8.73096H69.5415L66.0856 0.509766H63.9797Z" fill="#2D3A20"/>
<path d="M81.5494 8.73101H83.7888V2.50379H85.9693C86.1012 2.50379 86.2093 2.39619 86.2093 2.26101V0.507324H79.1289V2.26101C79.1289 2.39628 79.2362 2.50379 79.3705 2.50379H81.5494V8.73101Z" fill="#2D3A20"/>
<path d="M17.7689 0.507324H13.2606V10.7408L13.5489 12.5346L13.4072 12.5639L12.8756 11.0813L7.69798 2.61155C6.67901 0.865342 6.26454 0.507432 4.59601 0.507432H0.93868C0.588101 0.507432 0.304688 0.796074 0.304688 1.15233V18.9705C0.304688 19.3259 0.588101 19.6138 0.93868 19.6138H5.3586V9.05734L5.12434 7.53223L5.27178 7.49961L5.67887 8.59255L11.7329 17.8424C12.7134 19.4409 13.127 19.6136 14.6006 19.6136H17.7689C18.1179 19.6136 18.4021 19.3258 18.4021 18.9704V1.15226C18.4021 0.796002 18.1179 0.507324 17.7689 0.507324Z" fill="#2D3A20"/>
<path d="M23.8711 0.507324V7.10746C23.8711 7.46289 24.157 7.7507 24.5043 7.7507H29.5295C29.8793 7.7507 30.1619 7.46289 30.1619 7.10746V0.507324H23.8711Z" fill="#2D3A20"/>
<path d="M29.5279 12.5703H24.5034C24.157 12.5703 23.8711 12.859 23.8711 13.2152V19.6143H30.1619V13.2152C30.1619 12.859 29.8785 12.5703 29.5279 12.5703Z" fill="#2D3A20"/>
<path d="M88.5014 1.09986C88.4514 1.07148 88.3687 1.0566 88.2557 1.0566H88.082V1.48205H88.2655C88.3515 1.48205 88.417 1.47261 88.4596 1.45535C88.5391 1.42437 88.58 1.36264 88.58 1.27254C88.58 1.18669 88.5538 1.12895 88.5014 1.09986ZM88.2827 0.914704C88.4252 0.914704 88.5301 0.928914 88.5981 0.956348C88.7177 1.00814 88.7775 1.10722 88.7775 1.25503C88.7775 1.36098 88.739 1.43691 88.6644 1.48775C88.6243 1.51353 88.5686 1.53198 88.4973 1.54452C88.5874 1.55871 88.6538 1.597 88.6964 1.65873C88.7373 1.7214 88.757 1.78147 88.757 1.84154V1.92739C88.757 1.95483 88.7586 1.98416 88.7603 2.0149C88.7628 2.04565 88.7668 2.06668 88.7716 2.07567L88.7781 2.08985H88.5873C88.5865 2.08512 88.5856 2.08042 88.5847 2.07805C88.5831 2.07332 88.5822 2.06856 88.5815 2.06383L88.5773 2.02623V1.93284C88.5773 1.79686 88.5413 1.70767 88.4683 1.66418C88.4249 1.6384 88.3496 1.62589 88.2423 1.62589H88.0817V2.08891H87.8778V0.912539L88.2827 0.914704ZM87.6626 0.854657C87.4873 1.03487 87.3997 1.25263 87.3997 1.5071C87.3997 1.76405 87.4874 1.98265 87.6618 2.16451C87.8379 2.34472 88.0509 2.43567 88.3032 2.43567C88.5538 2.43567 88.7676 2.34463 88.9429 2.16451C89.119 1.98265 89.2075 1.76405 89.2075 1.5071C89.2075 1.25263 89.119 1.03487 88.9429 0.854657C88.7668 0.674448 88.5522 0.583505 88.3032 0.583505C88.0525 0.583505 87.8396 0.67433 87.6626 0.854657ZM89.0478 2.26628C88.8413 2.47652 88.594 2.58164 88.3032 2.58164C88.0116 2.58164 87.7634 2.4764 87.5594 2.26628C87.3555 2.05698 87.2539 1.80324 87.2539 1.5054C87.2539 1.21089 87.3571 0.958954 87.5619 0.749538C87.7658 0.541895 88.0124 0.4375 88.3032 0.4375C88.594 0.4375 88.8413 0.541801 89.0478 0.749538C89.2525 0.958126 89.3557 1.21007 89.3557 1.5054C89.3557 1.80241 89.2525 2.05603 89.0478 2.26628Z" fill="#2D3A20"/>
</g>
<defs>
<clipPath id="clip0_5497_6692">
<rect width="89.6679" height="19.9262" fill="white"/>
</clipPath>
</defs>
</svg>
