<svg width="128" height="26" viewBox="0 0 128 26" fill="none" xmlns="http://www.w3.org/2000/svg">
<g clip-path="url(#clip0_5497_6686)">
<path d="M1.42578 7.26678H8.33171V0.432373C8.82635 0.528304 9.29532 0.724872 9.70875 1.00955C10.1222 1.29423 10.471 1.66079 10.733 2.08586C11.1313 2.72328 11.3458 3.4559 11.3534 4.20477V9.26321C11.3513 9.40097 11.3367 9.53828 11.31 9.67352C11.2882 9.79621 11.229 9.90943 11.1403 9.99806C11.0516 10.0867 10.9377 10.1465 10.8136 10.1696C10.6668 10.201 10.5171 10.2174 10.3669 10.2186H5.27275C4.61395 10.2531 3.95767 10.1142 3.37112 9.81615C2.78457 9.51808 2.2888 9.07153 1.93457 8.5222C1.77613 8.23989 1.63723 7.94731 1.51885 7.64647L1.42578 7.4505V7.26678ZM1.42578 16.5875C1.51265 16.3793 1.58711 16.165 1.68638 15.9751C1.95037 15.391 2.36823 14.8875 2.89642 14.517C3.42461 14.1465 4.04381 13.9225 4.6895 13.8685C5.00026 13.8305 5.31334 13.8141 5.62642 13.8195H10.4662C11.0866 13.8195 11.31 14.0951 11.3348 14.6891V19.7475C11.3578 20.6433 11.0808 21.5215 10.5468 22.2461C10.0018 22.9457 9.21994 23.4282 8.34412 23.6057V16.7774H1.42578V16.5875Z" fill="#2D3A20"/>
<path d="M125.522 13.6181C125.46 13.7533 125.359 13.8665 125.23 13.9422C125.101 14.0178 124.951 14.0522 124.802 14.0407L120.334 14.3346C119.881 14.3346 119.428 14.3714 118.951 14.3959C118.937 14.9225 118.999 15.4484 119.137 15.9575C119.333 16.8551 119.873 17.6431 120.645 18.156C121.191 18.5193 121.838 18.7083 122.497 18.6974C123.156 18.6864 123.796 18.4761 124.33 18.0948C124.578 17.9417 124.808 17.7518 125.062 17.562L125.435 18.0641C124.752 19.0044 123.802 19.7228 122.705 20.1279C122.309 20.2859 121.89 20.377 121.464 20.3974C120.474 20.4186 119.506 20.1053 118.721 19.5094C118.004 18.9548 117.471 18.2023 117.189 17.3476C116.692 15.9165 116.749 14.3546 117.35 12.9628C117.69 12.1932 118.199 11.5073 118.839 10.9542C119.403 10.4443 120.072 10.0601 120.8 9.82734C121.577 9.57188 122.421 9.59099 123.186 9.88142C123.951 10.1719 124.59 10.7156 124.994 11.4196C125.179 11.7947 125.338 12.1813 125.472 12.577C125.486 12.6089 125.503 12.6396 125.522 12.6689V13.6181ZM119.093 13.3793H121.513C121.991 13.3793 122.463 13.3487 122.94 13.3119C123.282 13.3119 123.381 13.1772 123.362 12.8404C123.357 12.5776 123.319 12.3165 123.251 12.0626C123.175 11.6926 122.988 11.3535 122.715 11.0893C122.442 10.8251 122.094 10.6479 121.718 10.5806C121.347 10.5251 120.968 10.5814 120.631 10.742C120.293 10.9027 120.012 11.1602 119.826 11.4808C119.443 12.0527 119.193 12.701 119.093 13.3793ZM1.53125 9.9682C1.79806 10.1703 2.03384 10.3785 2.30064 10.55C3.04369 11.0062 3.90813 11.2323 4.78256 11.1991H11.1487C11.3186 11.2019 11.4871 11.1689 11.6431 11.1024C11.7991 11.0359 11.9389 10.9374 12.0534 10.8134C12.1678 10.6895 12.2542 10.5429 12.3068 10.3834C12.3595 10.224 12.3771 10.0553 12.3586 9.88858V4.34022C12.3533 3.80756 12.3139 3.27575 12.2407 2.74798C12.1246 1.98799 11.766 1.28435 11.2169 0.739303C11.1681 0.689062 11.1225 0.635886 11.0804 0.580078H15.2562L14.915 0.965891C14.4405 1.52828 14.1448 2.21638 14.0649 2.94395C14.0059 3.34968 13.9748 3.75888 13.9719 4.16875V9.90083C13.9577 10.0808 13.9801 10.2618 14.0376 10.4332C14.0952 10.6046 14.1867 10.763 14.3069 10.899C14.4224 11.0162 14.5618 11.1079 14.7158 11.1681C14.8698 11.2282 15.0349 11.2555 15.2004 11.2481H21.7527C22.5655 11.258 23.362 11.023 24.036 10.5745C24.2842 10.3969 24.5138 10.2009 24.7744 9.99882V14.157L24.3835 13.7896C23.7683 13.2658 22.9924 12.9616 22.1808 12.9261C21.5603 12.8771 20.8716 12.8342 20.2139 12.8281H15.3493C15.0636 12.8372 14.7827 12.9039 14.5241 13.0241C14.3372 13.1245 14.1851 13.278 14.0878 13.4647C13.9904 13.6515 13.9522 13.8628 13.9781 14.0713V20.3117C13.9501 21.1758 14.1834 22.0285 14.6482 22.7613C14.8219 23.0062 15.0205 23.2328 15.219 23.4778H11.0618C11.279 23.1961 11.5148 22.9082 11.7195 22.602C11.9737 22.2054 12.1349 21.7576 12.1911 21.2915C12.5137 18.9031 12.2779 16.5025 12.34 14.108C12.359 13.9321 12.3376 13.7543 12.2773 13.5877C12.217 13.4211 12.1195 13.2701 11.9918 13.1459C11.8642 13.0217 11.7098 12.9275 11.5402 12.8704C11.3706 12.8132 11.1901 12.7946 11.0122 12.8159H5.63262C5.11141 12.8159 4.58401 12.8159 4.0628 12.8894C3.1452 12.9677 2.28552 13.3648 1.63673 14.01L1.53125 14.0958V9.9682ZM82.7706 9.86409V6.36115C82.7659 6.13498 82.7304 5.91046 82.6651 5.69363C82.6167 5.55019 82.5258 5.42443 82.4041 5.33268C82.2823 5.24094 82.1355 5.18747 81.9825 5.17921C81.7123 5.12608 81.4386 5.0913 81.1635 5.07511C81.0208 5.07511 80.965 5.01999 80.9774 4.87914C80.9836 4.79351 80.9836 4.70756 80.9774 4.62193C80.9774 4.49332 81.027 4.4627 81.1511 4.43821L84.6134 3.73395L84.8616 3.67271V17.2619C84.8616 17.513 84.8616 17.7702 84.8926 18.0213C84.9422 18.7255 85.2835 18.7623 85.7488 18.8174C85.9722 18.8174 86.2018 18.8541 86.4252 18.8725C86.6485 18.8909 86.6547 18.9338 86.6361 19.0991C86.6424 19.1909 86.6424 19.2829 86.6361 19.3747C86.6361 19.4421 86.5493 19.54 86.4872 19.5523C86.1211 19.6258 85.7551 19.6748 85.389 19.7421C85.0229 19.8095 84.5513 19.9014 84.148 20.0055C83.7447 20.1096 83.2669 20.2382 82.7954 20.3668V18.9215L82.2804 19.2155C81.6599 19.5523 81.0828 19.9197 80.45 20.2137C79.9459 20.4351 79.3783 20.472 78.8491 20.3178C77.9712 20.0991 77.175 19.6369 76.5549 18.9857C75.9347 18.3346 75.5165 17.5218 75.3496 16.6434C75.2594 16.2514 75.2115 15.8511 75.2069 15.4492C75.2293 14.9178 75.3083 14.3903 75.4427 13.8753C75.607 13.2987 75.8738 12.7554 76.2307 12.2708C77.1057 11.0115 78.4393 10.134 79.9536 9.82122C80.8239 9.59462 81.7389 9.59462 82.6092 9.82122C82.661 9.84198 82.7152 9.85637 82.7706 9.86409ZM82.7706 14.9531V11.9401C82.7756 11.8428 82.7495 11.7465 82.6961 11.6645C82.4329 11.2944 82.0747 11 81.6581 10.8116C81.2416 10.6233 80.7818 10.5478 80.3259 10.5928C79.8214 10.642 79.3412 10.8308 78.9405 11.1374C78.5399 11.444 78.235 11.8559 78.0611 12.3259C77.7383 13.0353 77.5632 13.8014 77.5462 14.5788C77.5291 15.3562 77.6705 16.1291 77.9618 16.8516C78.2331 17.5948 78.7812 18.208 79.4944 18.5663C79.99 18.8006 80.5412 18.8966 81.0881 18.8437C81.635 18.7908 82.1567 18.5911 82.5968 18.2662C82.6545 18.2362 82.7019 18.1898 82.7328 18.1331C82.7637 18.0764 82.7769 18.0119 82.7706 17.9478V14.9531ZM34.7517 13.6916C34.7517 15.2104 34.7145 16.6801 34.7517 18.1438C34.7827 18.8664 35.0185 19.1359 35.8189 19.2767C36.2284 19.3563 36.6441 19.3808 37.0599 19.4298C37.0561 19.4418 37.0561 19.4546 37.0599 19.4665C37.1095 20.0789 37.1095 20.0789 36.4704 20.0789H30.6193C30.3773 20.0789 30.2842 20.0177 30.3215 19.7789V19.3992C30.5821 19.3992 30.8427 19.3502 31.1033 19.3012C31.3676 19.2605 31.6273 19.1948 31.8789 19.1052C32.0229 19.0417 32.1462 18.94 32.235 18.8113C32.3237 18.6826 32.3744 18.532 32.3815 18.3765C32.4435 17.5742 32.4869 16.772 32.4931 15.9697V7.69006C32.4704 7.26625 32.4165 6.84462 32.3318 6.42851C32.2872 6.25958 32.1891 6.10912 32.0518 5.99898C31.9146 5.88885 31.7453 5.82479 31.5686 5.81611C31.308 5.76712 31.0412 5.761 30.7744 5.72425C30.6565 5.72425 30.5386 5.66914 30.5573 5.49766C30.5759 5.32619 30.5573 5.22208 30.5573 5.06286C30.6171 5.05748 30.6773 5.05748 30.7372 5.06286H37.1095C38.0698 5.05019 39.0198 5.25994 39.883 5.67526C40.4455 5.94143 40.9311 6.3428 41.2954 6.84251C41.6597 7.34223 41.8909 7.92426 41.9679 8.53518C42.1404 9.51229 42.0085 10.5181 41.5894 11.4196C41.0827 12.4523 40.1946 13.2544 39.1075 13.661C38.42 13.9118 37.6985 14.0604 36.9668 14.1019C36.2532 14.1631 35.6576 13.8325 34.9937 13.7467C34.9112 13.7372 34.83 13.7187 34.7517 13.6916ZM34.7517 9.69874V12.6015C34.7517 12.8097 34.8261 12.8955 35.0123 12.9261C35.3908 12.9812 35.7693 13.0608 36.154 13.0853C36.8792 13.1721 37.6115 12.994 38.2128 12.5844C38.8141 12.1749 39.2426 11.5623 39.4177 10.8623C39.676 10.0059 39.6995 9.09727 39.4859 8.22898C39.3731 7.68641 39.1087 7.1858 38.7228 6.78371C38.2981 6.37343 37.774 6.07748 37.2004 5.92416C36.6268 5.77084 36.023 5.76527 35.4466 5.90797C34.9316 5.99371 34.7579 6.21417 34.7517 6.74084C34.7393 7.74518 34.7455 8.71277 34.7455 9.69874H34.7517ZM60.1169 10.6602V9.96207H64.6464V10.6602L63.908 10.8072C63.5481 10.8929 63.4426 11.0277 63.5543 11.3583C63.8335 12.1667 64.119 12.9628 64.423 13.759C64.8635 14.9164 65.3227 16.0677 65.7756 17.2252L65.8501 17.3354C65.9866 17.0169 66.1231 16.723 66.2348 16.4352C66.7105 15.1654 67.18 13.8957 67.6433 12.626C67.786 12.2402 67.8853 11.8421 67.9907 11.4441C68.0962 11.046 67.817 10.8317 67.3703 10.7521C67.2524 10.7521 67.1345 10.7521 67.0104 10.7153C66.8863 10.6786 66.6567 10.6051 66.7064 10.3479C66.719 10.2094 66.719 10.07 66.7064 9.93145C68.9339 9.89471 71.1552 9.99882 73.3703 9.58238V17.9723C73.371 18.1774 73.3876 18.3821 73.4199 18.5847C73.4395 18.7653 73.5187 18.9346 73.6454 19.0663C73.7722 19.198 73.9393 19.2849 74.1211 19.3134C74.4065 19.3747 74.6981 19.4114 75.0022 19.4604V20.0728H69.6102C69.5946 19.9037 69.5946 19.7336 69.6102 19.5645C69.6102 19.5033 69.7529 19.4421 69.8398 19.4176C70.1314 19.3379 70.4603 19.2828 70.7271 19.2032C70.9939 19.1236 71.149 18.799 71.1924 18.5173C71.239 18.1826 71.2577 17.8446 71.2483 17.5069V12.2892C71.237 11.9405 71.2039 11.5928 71.149 11.2481C71.1111 11.0861 71.0187 10.9416 70.8868 10.8382C70.755 10.7347 70.5915 10.6785 70.423 10.6786C69.6971 10.6112 69.4054 11.1073 69.1821 11.6094C68.1831 13.9182 67.2089 16.2453 66.2348 18.5663C66.0114 19.1052 65.8005 19.6564 65.6143 20.2137C65.6008 20.2764 65.5641 20.3319 65.5113 20.3693C65.4585 20.4067 65.3934 20.4233 65.3289 20.4158C65.234 20.4066 65.1384 20.4066 65.0435 20.4158C64.8946 20.4158 64.8263 20.3607 64.7829 20.2443C64.3547 19.1175 63.939 17.9907 63.4985 16.87C63.0579 15.7493 62.6608 14.8245 62.2575 13.808C61.9721 13.1159 61.6867 12.4178 61.3826 11.7319C61.2954 11.479 61.1442 11.2524 60.9433 11.0734C60.7424 10.8944 60.4985 10.769 60.2348 10.7092C60.1931 10.6991 60.1533 10.6825 60.1169 10.6602ZM101.068 19.4665V20.0789H95.813C95.8006 19.8975 95.8006 19.7154 95.813 19.5339C95.813 19.4849 95.9433 19.4359 96.024 19.4237C96.2908 19.3686 96.5638 19.3441 96.8244 19.2767C97.0092 19.2362 97.1733 19.1319 97.287 18.9825C97.4008 18.8332 97.4568 18.6487 97.4449 18.4622C97.4449 16.5086 97.4821 14.5612 97.4945 12.6076C97.4944 12.4025 97.4778 12.1978 97.4449 11.9952C97.4243 11.8322 97.3539 11.6793 97.2431 11.5567C97.1322 11.4342 96.9862 11.3479 96.8244 11.3094C96.5948 11.242 96.359 11.193 96.1108 11.1379V10.6235L99.6104 9.66812V11.4196L100.516 10.8072C101.039 10.3957 101.625 10.071 102.254 9.84572C102.624 9.725 103.016 9.68018 103.405 9.71399C103.794 9.74781 104.172 9.85954 104.516 10.0424C104.86 10.2252 105.162 10.4753 105.405 10.7774C105.647 11.0795 105.825 11.4272 105.927 11.7993C106.071 12.341 106.141 12.8989 106.138 13.4589V18.401C106.138 19.0624 106.392 19.3318 107.056 19.4237H107.106C107.646 19.5278 107.658 19.54 107.565 20.1341H102.564C102.551 19.9608 102.551 19.7868 102.564 19.6135C102.564 19.5523 102.694 19.4972 102.775 19.4727C103.029 19.4053 103.284 19.3624 103.532 19.2828C103.632 19.2541 103.722 19.1981 103.791 19.1212C103.86 19.0442 103.906 18.9495 103.923 18.848C103.991 18.5392 104.039 18.2262 104.065 17.911V13.2507C104.064 12.6927 103.865 12.1529 103.501 11.7258C103.252 11.4694 102.925 11.2996 102.57 11.242C101.986 11.1279 101.38 11.2121 100.851 11.4808C100.46 11.6987 100.081 11.9379 99.7158 12.1973C99.6717 12.2483 99.6494 12.3142 99.6538 12.3811V18.4132C99.6538 19.191 99.8647 19.3379 100.764 19.4665H101.068ZM49.9844 15.1736C49.947 13.9739 50.3136 12.7959 51.0269 11.8238C51.7854 10.7539 52.9398 10.0214 54.2409 9.78448C54.9292 9.64578 55.6392 9.65012 56.3256 9.79724C57.0121 9.94435 57.6599 10.231 58.2279 10.6389C58.7959 11.0468 59.2715 11.5671 59.6246 12.1665C59.9776 12.7659 60.2002 13.4313 60.2782 14.1203C60.4554 15.3293 60.2518 16.5628 59.6949 17.6538C59.4102 18.2304 59.0107 18.7444 58.5203 19.1652C58.03 19.5861 57.4587 19.9052 56.8407 20.1034C56.3166 20.2898 55.7658 20.3932 55.2089 20.4096C54.4581 20.4233 53.7132 20.2771 53.0248 19.981C52.3456 19.6969 51.7401 19.2653 51.2534 18.7181C50.7667 18.171 50.4114 17.5225 50.214 16.821C50.0766 16.2813 49.9771 15.7329 49.9162 15.1797L49.9844 15.1736ZM57.9328 15.3696C57.9511 14.582 57.8529 13.7959 57.6412 13.0363C57.464 12.2862 57.0694 11.6031 56.5057 11.0705C56.2836 10.8589 56.0178 10.697 55.7266 10.596C55.4353 10.4949 55.1254 10.457 54.818 10.4849C54.5105 10.5128 54.2128 10.6059 53.9451 10.7576C53.6774 10.9094 53.4461 11.1164 53.2668 11.3645C52.9987 11.7196 52.7893 12.1144 52.6463 12.5342C52.2703 13.8238 52.2468 15.1887 52.578 16.4903C52.7316 17.3467 53.12 18.1452 53.7011 18.799C54.0879 19.2435 54.6372 19.5187 55.229 19.5646C55.8208 19.6105 56.407 19.4234 56.8593 19.044C57.2251 18.6885 57.4866 18.242 57.6163 17.7518C57.8454 16.9785 57.9522 16.175 57.9328 15.3696Z" fill="#2D3A20"/>
<path d="M17.9924 23.6119C17.4518 23.5211 16.9387 23.3119 16.4909 22.9995C16.0059 22.6584 15.6224 22.1953 15.3802 21.6583C15.197 21.2911 15.0794 20.8954 15.0327 20.4887C14.9831 18.9332 14.9893 17.3715 14.9769 15.816V14.5422C14.9691 14.4573 14.9794 14.3717 15.0071 14.2909C15.0348 14.2101 15.0792 14.1359 15.1377 14.0731C15.1961 14.0103 15.2671 13.9602 15.3463 13.926C15.4255 13.8918 15.511 13.8744 15.5974 13.8747C15.8136 13.8482 16.0311 13.8339 16.2489 13.8318H21.0204C21.8966 13.8141 22.7555 14.0737 23.4713 14.5729C24.2138 15.1018 24.7242 15.8902 24.8984 16.7775H17.9924V23.6119ZM17.98 0.463116V7.25465H24.886C24.7748 7.83608 24.5189 8.38113 24.1414 8.84077C23.5996 9.49159 22.8525 9.94439 22.0193 10.1268C21.6834 10.2004 21.3394 10.2313 20.9956 10.2187H15.7091C15.6107 10.2251 15.5121 10.2106 15.4199 10.1761C15.3277 10.1417 15.2441 10.0881 15.1747 10.019C15.1053 9.94993 15.0517 9.86695 15.0176 9.77567C14.9835 9.68439 14.9696 9.58694 14.9769 9.48992V4.22326C14.9454 3.57389 15.0891 2.9279 15.3932 2.35123C15.6974 1.77456 16.1511 1.28786 16.708 0.940789C17.0967 0.73327 17.4989 0.551198 17.9118 0.395752L17.98 0.463116Z" fill="#2D3A20"/>
<path d="M88.756 14.3647C88.7137 14.9944 88.8019 15.626 89.0153 16.2209C89.2286 16.8158 89.5627 17.3616 89.997 17.8248C90.4973 18.3169 91.1553 18.6221 91.8584 18.6882C92.7895 18.7678 93.7147 18.4817 94.4334 17.8921L94.8491 17.5614L95.2462 18.0758C94.8898 18.5514 94.4727 18.9795 94.0052 19.3496C93.4838 19.7727 92.8798 20.0854 92.2307 20.2682C91.7096 20.4114 91.1628 20.4386 90.6298 20.3479C89.8742 20.2446 89.1594 19.9468 88.5574 19.4844C87.9742 19.0482 87.5217 18.464 87.2482 17.7941C87.0517 17.338 86.9 16.8643 86.7953 16.3795C86.702 15.8034 86.702 15.2164 86.7953 14.6403C86.8678 13.9634 87.0655 13.3054 87.3785 12.699C87.7258 11.9833 88.2272 11.3511 88.8478 10.8465C89.4683 10.342 90.1929 9.97724 90.9711 9.7778C91.6851 9.60525 92.4359 9.65777 93.1181 9.92797C93.8003 10.1982 94.3796 10.6725 94.7746 11.2843C95.1794 11.878 95.3955 12.5774 95.3951 13.293C95.3951 13.8135 95.2152 13.985 94.6878 14.034C94.1604 14.083 93.5523 14.1687 92.9815 14.2116C92.5471 14.2483 92.1128 14.2116 91.6785 14.2606C91.2441 14.3096 90.7539 14.3402 90.2948 14.3586C89.8356 14.3769 89.271 14.3647 88.756 14.3647ZM88.9049 13.3971H89.6371C90.6671 13.3971 91.7033 13.3542 92.7395 13.3175C93.1056 13.3175 93.2297 13.1644 93.1862 12.8092C93.1549 12.4494 93.0757 12.0952 92.9504 11.7559C92.852 11.4571 92.6739 11.19 92.4349 10.9826C92.1958 10.7751 91.9047 10.6349 91.5919 10.5767C91.2791 10.5184 90.9562 10.5443 90.6571 10.6516C90.3579 10.7588 90.0935 10.9435 89.8915 11.1863C89.3488 11.8097 89.0093 12.5802 88.9173 13.3971H88.9049ZM116.026 17.6043C116.102 17.7189 116.189 17.8256 116.287 17.9227C116.479 18.0758 116.392 18.1861 116.287 18.3331C115.716 18.9965 115.024 19.5472 114.245 19.9559C113.729 20.2474 113.146 20.4073 112.551 20.4213C111.513 20.4378 110.499 20.1149 109.666 19.5027C108.846 18.8894 108.249 18.0298 107.966 17.0531C107.673 16.1321 107.643 15.1491 107.88 14.2123C108.116 13.2756 108.61 12.4214 109.306 11.7436C110.285 10.7078 111.579 10.0155 112.992 9.77168C113.931 9.57456 114.912 9.74351 115.728 10.2432C115.863 10.3136 115.979 10.4154 116.065 10.5398C116.151 10.6643 116.205 10.8076 116.222 10.9573C116.239 11.107 116.219 11.2585 116.163 11.3988C116.107 11.539 116.018 11.6637 115.902 11.762C115.818 11.8636 115.717 11.9505 115.604 12.0192C115.344 12.1539 115.182 12.1049 114.903 11.8355C114.494 11.4168 113.974 11.1216 113.401 10.9842C111.906 10.6597 110.771 11.1251 110.218 12.5581C109.888 13.3205 109.758 14.1525 109.84 14.9776C109.921 15.8027 110.211 16.5944 110.684 17.2797C110.948 17.6798 111.3 18.0162 111.713 18.2643C112.127 18.5123 112.591 18.6655 113.073 18.7127C113.544 18.7625 114.02 18.7117 114.47 18.5637C114.92 18.4158 115.332 18.1742 115.679 17.8554C115.73 17.8112 115.786 17.7722 115.846 17.739L116.026 17.6043ZM42.4497 20.0906C42.4497 19.4782 42.4124 19.4782 43.0143 19.417C43.3428 19.3983 43.6516 19.2558 43.8768 19.0189C43.9713 18.8916 44.0292 18.7413 44.0443 18.5841C44.0796 18.3038 44.0961 18.0215 44.0939 17.739V12.6806C44.0969 12.4446 44.0783 12.2089 44.0381 11.9763C44.0235 11.8249 43.9582 11.6825 43.8526 11.5716C43.7471 11.4608 43.6071 11.3877 43.4548 11.3639C43.2129 11.3211 42.9709 11.2598 42.7041 11.1986V10.6597L46.1974 9.71656V12.1662C46.458 11.7926 46.6751 11.4374 46.9295 11.1128C47.3064 10.5322 47.8542 10.0792 48.4993 9.81455C48.8592 9.68682 49.2553 9.70308 49.6032 9.85986C49.951 10.0166 50.2229 10.3015 50.3608 10.6535C50.3982 10.8318 50.3974 11.0159 50.3584 11.1938C50.3194 11.3718 50.2431 11.5397 50.1344 11.6868C50.0257 11.8339 49.887 11.9569 49.7272 12.0479C49.5674 12.1389 49.3901 12.1959 49.2067 12.2152C49.0743 12.1883 48.9545 12.1194 48.8654 12.0192C48.7436 11.8788 48.589 11.7697 48.415 11.7014C48.241 11.6331 48.0527 11.6077 47.8664 11.6273C47.6152 11.6656 47.3781 11.7668 47.1777 11.9212C46.7375 12.3018 46.4059 12.7895 46.216 13.3359C46.1861 13.4056 46.1714 13.4807 46.1725 13.5563V18.1738C46.1724 18.3529 46.1911 18.5314 46.2284 18.7066C46.2757 18.8719 46.3728 19.019 46.507 19.1284C46.6411 19.2378 46.8058 19.3043 46.9792 19.319C47.3266 19.3803 47.6803 19.417 48.0402 19.4721V20.0845L42.4497 20.0906ZM72.3754 4.98882C72.5442 4.98857 72.7114 5.02234 72.8666 5.08806C73.0218 5.15378 73.1617 5.25007 73.2779 5.37104C73.3941 5.492 73.484 5.6351 73.5422 5.79156C73.6004 5.94803 73.6256 6.11457 73.6163 6.28099C73.601 6.59138 73.4769 6.88688 73.2652 7.11698C73.0536 7.34708 72.7676 7.4975 72.456 7.54254C72.1141 7.57153 71.7745 7.46624 71.5108 7.24953C71.247 7.03283 71.0806 6.7222 71.0475 6.3851C71.0208 6.20302 71.036 6.01734 71.092 5.84186C71.148 5.66638 71.2433 5.50559 71.3709 5.37145C71.4984 5.23731 71.655 5.13325 71.8289 5.06701C72.0028 5.00077 72.1896 4.97404 72.3754 4.98882Z" fill="#2D3A20"/>
</g>
<defs>
<clipPath id="clip0_5497_6686">
<rect width="127.328" height="25.107" fill="white"/>
</clipPath>
</defs>
</svg>
