<svg width="200" height="35" viewBox="0 0 200 35" fill="none" xmlns="http://www.w3.org/2000/svg">
<path fill-rule="evenodd" clip-rule="evenodd" d="M53.4456 0.867432L36.3917 34.2057H20.3733L27.5104 20.3889H27.1902C21.3022 28.0322 12.5172 33.0639 0 34.2057V20.5802C0 20.5802 8.00757 20.1072 12.715 15.158H0V0.867695H14.2903V12.6212L14.611 12.6199L20.4506 0.867695H31.258V12.5467L31.5787 12.5462L37.6372 0.867432H53.4456Z" fill="white"/>
<path d="M146.44 30.5259H151.043V4.10864H146.44V30.5259Z" fill="white"/>
<path fill-rule="evenodd" clip-rule="evenodd" d="M121.069 30.2561C122.07 30.672 123.087 30.8798 124.121 30.8798C125.829 30.8798 127.357 30.464 128.706 29.6324C130.055 28.8007 131.1 27.6542 131.842 26.1933C132.584 24.7209 132.954 23.052 132.954 21.1863C132.954 19.3205 132.572 17.6516 131.808 16.1793C131.044 14.707 129.982 13.5662 128.622 12.757C127.262 11.9366 125.717 11.532 123.986 11.5432C122.884 11.5432 121.828 11.7567 120.816 12.1838C119.805 12.6109 118.962 13.2178 118.288 14.0045C118.235 14.0645 118.185 14.125 118.136 14.186V4.12549H113.517V30.5259H118.102L118.093 28.0596C118.212 28.205 118.338 28.347 118.473 28.4859C119.204 29.239 120.069 29.829 121.069 30.2561ZM125.79 25.9909C125.037 26.4516 124.177 26.6822 123.21 26.6822C122.255 26.6822 121.378 26.4461 120.58 25.974C119.782 25.4907 119.147 24.8333 118.675 24.0016C118.215 23.17 117.984 22.2259 117.984 21.1694C117.973 20.1129 118.198 19.1689 118.658 18.3372C119.131 17.4942 119.765 16.8424 120.563 16.3816C121.361 15.9096 122.244 15.6792 123.21 15.6904C124.177 15.6792 125.037 15.9039 125.79 16.3647C126.554 16.8143 127.138 17.4605 127.543 18.3035C127.959 19.1351 128.167 20.0905 128.167 21.1694C128.167 22.2483 127.959 23.2037 127.543 24.0353C127.138 24.867 126.554 25.5189 125.79 25.9909Z" fill="white"/>
<path d="M60.1133 5.71021H65.3731L70.0783 22.8935L75.0837 5.71021H79.4668L84.8953 22.5487L89.4133 5.71021H94.2348L87.1205 30.5259H82.5855L77.0657 14.076L71.9985 30.5259H67.4129L60.1133 5.71021Z" fill="white"/>
<path fill-rule="evenodd" clip-rule="evenodd" d="M102.002 30.9642C100.17 30.9753 98.5177 30.5707 97.0453 29.7503C95.5844 28.9187 94.4324 27.7666 93.5894 26.2944C92.7577 24.822 92.3418 23.1418 92.3418 21.2537C92.3418 19.4218 92.769 17.764 93.6231 16.2804C94.4772 14.7969 95.6349 13.6393 97.0959 12.8076C98.557 11.9759 100.187 11.5601 101.985 11.5601C104.008 11.5601 105.778 12.0096 107.295 12.9087C108.824 13.8079 109.965 15.0835 110.718 16.7356C111.482 18.3765 111.757 20.259 111.544 22.3831H97.1031C97.1435 23.2294 97.3546 23.9994 97.7366 24.6927C98.1636 25.457 98.7594 26.0527 99.5235 26.4798C100.288 26.9068 101.142 27.1203 102.086 27.1203C102.805 27.1092 103.474 26.9855 104.092 26.7496C104.71 26.5024 105.233 26.1707 105.66 25.755C106.098 25.339 106.407 24.867 106.587 24.3389H111.409C111.117 25.6313 110.532 26.7833 109.655 27.7948C108.779 28.795 107.677 29.5761 106.351 30.1381C105.025 30.7 103.575 30.9753 102.002 30.9642ZM97.7535 17.7471C97.484 18.2168 97.2975 18.7226 97.1936 19.2644H106.766C106.696 18.5799 106.485 17.9561 106.132 17.3931C105.728 16.73 105.177 16.2186 104.48 15.859C103.783 15.4881 102.996 15.3027 102.12 15.3027C101.187 15.3027 100.338 15.5162 99.5742 15.9433C98.8099 16.3704 98.2029 16.9716 97.7535 17.7471Z" fill="white"/>
<path d="M136.343 11.9478C136.343 10.4418 136.686 9.10433 137.372 7.93548C138.057 6.75538 139.018 5.8394 140.254 5.18755C141.502 4.52444 142.957 4.18166 144.621 4.15918V8.25577C143.845 8.26701 143.182 8.42999 142.631 8.74468C142.092 9.04812 141.676 9.49207 141.384 10.0765C141.115 10.6145 140.969 11.2383 140.948 11.9478H144.519V15.8421H140.945V30.5259H136.343V15.8421H133.376V11.9478H136.343Z" fill="white"/>
<path fill-rule="evenodd" clip-rule="evenodd" d="M162.743 30.9305C160.866 30.9305 159.186 30.5202 157.702 29.6998C156.23 28.8681 155.072 27.7216 154.229 26.2607C153.397 24.7883 152.981 23.1194 152.981 21.2537C152.981 19.3768 153.397 17.7022 154.229 16.2299C155.072 14.7463 156.23 13.5943 157.702 12.7739C159.186 11.9534 160.866 11.5432 162.743 11.5432C164.631 11.5432 166.317 11.9534 167.8 12.7739C169.295 13.5943 170.458 14.7407 171.29 16.213C172.121 17.6853 172.543 19.3655 172.554 21.2537C172.543 23.1194 172.121 24.7883 171.29 26.2607C170.469 27.7216 169.312 28.8681 167.817 29.6998C166.322 30.5202 164.631 30.9305 162.743 30.9305ZM162.743 26.699C163.732 26.699 164.608 26.4742 165.373 26.0246C166.137 25.5639 166.727 24.9231 167.143 24.1027C167.558 23.2711 167.766 22.3215 167.766 21.2537C167.766 20.1748 167.558 19.2194 167.143 18.3877C166.727 17.5561 166.137 16.9155 165.373 16.4659C164.608 16.0051 163.732 15.7747 162.743 15.7747C161.765 15.7747 160.894 16.0051 160.13 16.4659C159.376 16.9155 158.792 17.5561 158.376 18.3877C157.96 19.2194 157.758 20.1748 157.769 21.2537C157.769 22.3215 157.977 23.2711 158.393 24.1027C158.82 24.9231 159.405 25.5639 160.146 26.0246C160.899 26.4742 161.765 26.699 162.743 26.699Z" fill="white"/>
<path d="M177.527 11.9479H172.402L177.949 30.5259H182.433L186.081 18.6601L190.02 30.5259H194.437L200 11.9479H195.364L192.209 23.5115L188.722 11.9479H184.237L180.766 23.7663L177.527 11.9479Z" fill="white"/>
</svg>
