<svg width="100" height="32" viewBox="0 0 100 32" fill="none" xmlns="http://www.w3.org/2000/svg">
<g clip-path="url(#clip0_5497_6752)">
<path d="M12.4102 25.4129C13.9403 27.2608 15.2104 29.1337 16.2843 30.9287C17.3594 29.1337 18.6282 27.2608 20.159 25.4129C18.9163 23.352 17.6402 21.5497 16.2843 19.9312C14.9289 21.5497 13.6534 23.352 12.4102 25.4129Z" fill="#2D3A20"/>
<path d="M16.9049 19.2109C18.32 20.8751 19.6004 22.6744 20.801 24.6586C22.1624 23.096 23.7175 21.5615 25.509 20.1151C24.3065 18.0834 23.0529 16.2878 21.7135 14.6675C19.9725 16.0457 18.3888 17.5285 16.9049 19.2109ZM15.6659 19.2109C14.2515 20.8751 12.9705 22.6756 11.7705 24.6586C10.4097 23.096 8.85397 21.5615 7.0625 20.1151C8.26493 18.0834 9.51793 16.2878 10.858 14.6675C12.5989 16.0457 14.1827 17.5285 15.6659 19.2109Z" fill="#2D3A20"/>
<path d="M22.162 4.28117C20.326 2.77398 18.3561 1.45725 16.2838 0.45752C14.2121 1.45725 12.2422 2.77398 10.4062 4.28117C12.5084 5.48351 14.4655 6.76738 16.2838 8.17417C18.1027 6.76738 20.0598 5.48351 22.162 4.28117Z" fill="#2D3A20"/>
<path d="M16.2858 9.34619C14.5376 10.7414 12.9435 12.2535 11.459 13.9596C13.2432 15.378 14.8348 16.8754 16.2858 18.4995C17.7368 16.8754 19.3284 15.378 21.1132 13.9596C19.6281 12.2535 18.0346 10.7414 16.2858 9.34619ZM4.4052 10.3447C2.88967 12.1896 1.56054 14.0734 0.453125 15.8575C2.63749 16.9612 4.57881 18.2007 6.31058 19.5247C7.46733 17.5429 8.73312 15.7431 10.1122 14.0905C8.38226 12.7847 6.49698 11.5635 4.4052 10.3447ZM22.4594 14.0905C24.1893 12.7847 26.0746 11.5635 28.167 10.3447C29.6819 12.1896 31.0117 14.0734 32.1191 15.8575C29.9347 16.9612 27.9934 18.2007 26.2616 19.5247C25.1049 17.5429 23.8385 15.7431 22.4594 14.0905Z" fill="#2D3A20"/>
<path d="M15.5361 8.76547C13.7489 7.40553 11.8009 6.15026 9.647 4.91992C7.97126 6.37174 6.41614 7.97325 5.00781 9.62221C7.11238 10.8398 9.00009 12.0804 10.7142 13.3844C12.1938 11.6983 13.7995 10.1717 15.5361 8.76547ZM17.0291 8.76547C18.8163 7.40553 20.7637 6.15026 22.9176 4.91992C24.5934 6.37174 26.1485 7.97325 27.5574 9.62221C25.4523 10.8398 23.5639 12.0804 21.8504 13.3844C20.3708 11.6983 18.7658 10.1717 17.0291 8.76547Z" fill="#2D3A20"/>
<path d="M94.1399 9.04042L95.3728 12.6949C95.5135 13.1135 95.653 13.6319 95.751 14.0238H95.7931C95.9052 13.6319 96.0319 13.1287 96.158 12.6803L97.2233 9.04042H99.0727L97.3628 13.6885C96.4241 16.2356 95.7931 17.3698 94.9799 18.0701C94.308 18.6713 93.6075 18.8958 93.1732 18.9512L92.7803 17.4957C93.0739 17.4252 93.4388 17.2712 93.7896 17.0193C94.1131 16.81 94.4895 16.4042 94.7289 15.9423C94.7984 15.8157 94.8404 15.7178 94.8404 15.6332C94.8404 15.5632 94.8269 15.4652 94.7429 15.2979L92.2473 9.04042H94.1399ZM85.2684 11.0703C85.2684 10.286 85.255 9.6282 85.2136 9.04042H86.7261L86.8108 10.0627H86.8522C87.147 9.52962 87.8895 8.88585 89.0244 8.88585C90.2158 8.88585 91.4493 9.65677 91.4493 11.812V15.8577H89.7243V12.0085C89.7243 11.0283 89.3612 10.286 88.4219 10.286C87.7354 10.286 87.2579 10.7764 87.077 11.2942C87.0203 11.4481 87.0075 11.658 87.0075 11.854V15.8577H85.2684V11.0703ZM82.2124 11.728C82.2259 11.0989 81.9462 10.0627 80.7961 10.0627C79.732 10.0627 79.2824 11.0283 79.213 11.728H82.2124ZM79.213 12.9316C79.255 14.1637 80.2217 14.6949 81.3151 14.6949C82.1143 14.6949 82.6887 14.583 83.2077 14.3877L83.4587 15.5772C82.8702 15.8158 82.0583 15.9983 81.077 15.9983C78.8628 15.9983 77.5598 14.639 77.5598 12.5537C77.5598 10.6644 78.7086 8.88585 80.8948 8.88585C83.1084 8.88585 83.8376 10.7058 83.8376 12.2038C83.8376 12.5257 83.8101 12.7782 83.7809 12.9316H79.213ZM69.9779 5.91895H71.7157V9.97807H71.7438C71.9539 9.65679 72.2341 9.39028 72.5978 9.19496C72.934 8.99842 73.3421 8.88585 73.7759 8.88585C74.9387 8.88585 76.1588 9.65678 76.1588 11.8406V15.8577H74.4349V12.0359C74.4349 11.0423 74.0701 10.2999 73.1174 10.2999C72.4437 10.2999 71.9679 10.7484 71.7858 11.2662C71.7298 11.4061 71.7158 11.5881 71.7158 11.784V15.8577H69.9779V5.91895ZM66.4492 11.77C66.4492 11.6162 66.4352 11.4481 66.3931 11.3082C66.2104 10.6784 65.72 10.2026 64.9921 10.2026C64.0254 10.2026 63.3097 11.0423 63.3097 12.4284C63.3097 13.59 63.8987 14.5276 64.9775 14.5276C65.622 14.5276 66.1824 14.1078 66.3791 13.492C66.4218 13.3095 66.4492 13.0722 66.4492 12.8762V11.77ZM68.2291 9.04042C68.2017 9.50225 68.173 10.0626 68.173 11.0003V14.8641C68.173 16.291 67.8782 17.3138 67.1631 17.957C66.4491 18.5873 65.4672 18.7827 64.5292 18.7827C63.6605 18.7827 62.7352 18.6013 62.1462 18.2381L62.5251 16.9347C62.9594 17.1879 63.6891 17.4525 64.5151 17.4525C65.6359 17.4525 66.4766 16.8648 66.4766 15.3947V14.8081H66.4492C66.0569 15.4093 65.3564 15.8158 64.4591 15.8158C62.7639 15.8158 61.5584 14.4163 61.5584 12.4838C61.5584 10.244 63.0155 8.88585 64.6553 8.88585C65.692 8.88585 66.3084 9.39029 66.6313 9.95069H66.6593L66.73 9.04042H68.2291ZM58.7284 11.728C58.743 11.0989 58.4628 10.0627 57.3127 10.0627C56.2486 10.0627 55.8002 11.0283 55.7302 11.728H58.7284ZM55.7302 12.9316C55.7722 14.1637 56.7389 14.6949 57.8323 14.6949C58.6315 14.6949 59.2053 14.583 59.7231 14.3877L59.9765 15.5772C59.3874 15.8158 58.5749 15.9983 57.5935 15.9983C55.3799 15.9983 54.0764 14.639 54.0764 12.5537C54.0764 10.6644 55.2258 8.88585 57.4114 8.88585C59.625 8.88585 60.3541 10.7058 60.3541 12.2038C60.3541 12.5257 60.3267 12.7782 60.2981 12.9316H55.7302ZM50.9095 5.91895H52.6473V15.8577H50.9095V5.91895ZM47.3077 5.91895H49.0461V15.8577H47.3077V5.91895ZM43.383 11.882L42.6398 9.55884C42.4577 8.98505 42.3036 8.34004 42.1641 7.79485H42.1355C41.9954 8.34004 41.8553 8.99843 41.6878 9.55884L40.9586 11.882H43.383ZM40.6784 13.1835L39.8658 15.8577H38.0859L41.1133 6.42336H43.3129L46.3818 15.8577H44.5318L43.6778 13.1835H40.6784Z" fill="#2D3A20"/>
<path d="M39.6835 20.7271V23.1165H42.2084V20.7271H43.2987V26.6919H42.2084V24.0633H39.6835V26.6919H38.5938V20.7271H39.6835Z" fill="#2D3A20"/>
<path d="M47.1714 24.0814C47.1805 23.684 47.0033 23.0275 46.2772 23.0275C45.6029 23.0275 45.3196 23.639 45.2758 24.0814H47.1714ZM45.2758 24.8426C45.3026 25.6208 45.9135 25.9567 46.6049 25.9567C47.1099 25.9567 47.4729 25.8867 47.8006 25.7632L47.9596 26.5147C47.588 26.6656 47.0739 26.7812 46.4544 26.7812C45.054 26.7812 44.2305 25.922 44.2305 24.6034C44.2305 23.409 44.9566 22.2852 46.3393 22.2852C47.7391 22.2852 48.1996 23.4352 48.1996 24.3826C48.1996 24.5858 48.1819 24.7464 48.1643 24.8426H45.2758Z" fill="#2D3A20"/>
<path d="M51.3592 24.5857C50.5887 24.5681 49.8534 24.736 49.8534 25.3907C49.8534 25.8161 50.1288 26.0108 50.4741 26.0108C50.9078 26.0108 51.227 25.7272 51.3245 25.4175C51.3513 25.3384 51.3592 25.2495 51.3592 25.179V24.5857ZM51.5011 26.6923L51.4305 26.2146H51.4037C51.1387 26.5505 50.6861 26.7884 50.1288 26.7884C49.2607 26.7884 48.7734 26.1611 48.7734 25.5064C48.7734 24.4178 49.7383 23.8696 51.3336 23.8775V23.8069C51.3336 23.5228 51.2185 23.0549 50.4559 23.0549C50.0307 23.0549 49.5879 23.1868 49.2955 23.3737L49.0829 22.6666C49.4021 22.4713 49.9606 22.2852 50.6423 22.2852C52.025 22.2852 52.4228 23.1607 52.4228 24.099V25.6573C52.4228 26.0467 52.4417 26.427 52.4843 26.6923L51.5011 26.6923Z" fill="#2D3A20"/>
<path d="M53.5781 20.4092H54.6752V26.6929H53.5781V20.4092Z" fill="#2D3A20"/>
<path d="M57.1049 21.1519V22.3822H58.1423V23.1976H57.1049V25.1002C57.1049 25.6211 57.2474 25.8955 57.6641 25.8955C57.8499 25.8955 57.9912 25.8688 58.0893 25.8433L58.1064 26.6744C57.9468 26.737 57.6641 26.7816 57.3181 26.7816C56.9198 26.7816 56.5823 26.6482 56.3782 26.4274C56.1492 26.1792 56.042 25.7903 56.042 25.2232V23.1976H55.4219V22.3823H56.042V21.4099L57.1049 21.1519Z" fill="#2D3A20"/>
<path d="M58.9648 20.4087H60.0643V22.9752H60.0814C60.2148 22.772 60.3915 22.6035 60.6223 22.4793C60.8343 22.3558 61.0914 22.2852 61.3661 22.2852C62.1025 22.2852 62.8725 22.772 62.8725 24.1514V26.6924H61.7827V24.2762C61.7827 23.647 61.5525 23.1791 60.9494 23.1791C60.5248 23.1791 60.2233 23.4614 60.1082 23.7906C60.0723 23.8775 60.0643 23.9926 60.0643 24.1167V26.6924H58.9648V20.4087Z" fill="#2D3A20"/>
<path d="M65.9062 26.6929V20.728H67.1471L68.6888 23.2854C69.0884 23.9493 69.4332 24.6393 69.7085 25.2849H69.7262C69.6543 24.489 69.6281 23.7193 69.6281 22.8078V20.728H70.638V26.6929H69.5129L67.9529 24.0734C67.5722 23.4175 67.1733 22.6837 66.8809 22.0113L66.8553 22.0199C66.8991 22.7896 66.9083 23.5776 66.9083 24.5603V26.693L65.9062 26.6929Z" fill="#2D3A20"/>
<path d="M74.5223 24.0814C74.532 23.684 74.3548 23.0275 73.6281 23.0275C72.9544 23.0275 72.6718 23.639 72.6273 24.0814H74.5223ZM72.6273 24.8426C72.6529 25.6208 73.2645 25.9567 73.9558 25.9567C74.4608 25.9567 74.8251 25.8867 75.1528 25.7632L75.3118 26.5147C74.939 26.6656 74.4255 26.7812 73.8054 26.7812C72.4062 26.7812 71.582 25.922 71.582 24.6034C71.582 23.409 72.3075 22.2852 73.6896 22.2852C75.0907 22.2852 75.5499 23.4352 75.5499 24.3826C75.5499 24.5858 75.5329 24.7464 75.5152 24.8426H72.6273Z" fill="#2D3A20"/>
<path d="M77.6765 21.1519V22.3822H78.712V23.1976H77.6765V25.1002C77.6765 25.6211 77.8178 25.8955 78.2338 25.8955C78.4196 25.8955 78.5615 25.8688 78.6602 25.8433L78.6785 26.6744C78.5164 26.737 78.2338 26.7816 77.8878 26.7816C77.4894 26.7816 77.1526 26.6482 76.9491 26.4274C76.7195 26.1792 76.6135 25.7903 76.6135 25.2232V23.1976H75.9922V22.3823H76.6135V21.4099L77.6765 21.1519Z" fill="#2D3A20"/>
<path d="M80.2566 22.3823L80.7073 24.3392C80.8054 24.7992 80.9035 25.2677 80.9826 25.7362H81.0009C81.0892 25.2677 81.2312 24.79 81.3554 24.3477L81.9128 22.3823H82.7997L83.3394 24.2941C83.4722 24.7992 83.5873 25.2677 83.6848 25.7362H83.7024C83.7737 25.2677 83.8706 24.7992 83.9863 24.2941L84.4645 22.3823H85.5372L84.1806 26.6927H83.1719L82.6572 24.9397C82.5244 24.4888 82.4275 24.0818 82.3301 23.5603H82.3118C82.2235 24.0909 82.1077 24.515 81.9847 24.9397L81.434 26.6927H80.4149L79.1406 22.3823H80.2566Z" fill="#2D3A20"/>
<path d="M86.9688 24.542C86.9688 25.3732 87.3769 26.0023 88.0415 26.0023C88.6616 26.0023 89.0959 25.3914 89.0959 24.5231C89.0959 23.8514 88.7944 23.0823 88.05 23.0823C87.2795 23.0823 86.9688 23.8246 86.9688 24.542ZM90.2198 24.4982C90.2198 26.0826 89.1038 26.7885 88.005 26.7885C86.783 26.7885 85.8438 25.9494 85.8438 24.5688C85.8438 23.1522 86.7739 22.2852 88.0756 22.2852C89.3609 22.2852 90.2198 23.1875 90.2198 24.4982Z" fill="#2D3A20"/>
<path d="M91.1174 23.771C91.1174 23.1869 91.1094 22.7719 91.082 22.3819H92.0305L92.0652 23.2045H92.1011C92.3131 22.5949 92.8187 22.2852 93.2792 22.2852C93.3852 22.2852 93.4479 22.2938 93.5375 22.3114V23.3372C93.4479 23.32 93.3499 23.3026 93.2165 23.3026C92.695 23.3026 92.3405 23.6391 92.243 24.1252C92.2248 24.2239 92.2071 24.3382 92.2071 24.4617V26.6924H91.1174L91.1174 23.771Z" fill="#2D3A20"/>
<path d="M95.3632 24.2762H95.3808C95.4875 24.1076 95.6111 23.922 95.7262 23.7711L96.7709 22.382H98.0824L96.4883 24.1441L98.3132 26.6924H96.9756L95.7354 24.7897L95.3632 25.2229V26.6924H94.2734V20.4087H95.3632L95.3632 24.2762Z" fill="#2D3A20"/>
</g>
<defs>
<clipPath id="clip0_5497_6752">
<rect width="99.2555" height="31.4712" fill="white"/>
</clipPath>
</defs>
</svg>
