<svg width="200" height="70" viewBox="0 0 200 70" fill="none" xmlns="http://www.w3.org/2000/svg">
<g clip-path="url(#clip0_5499_6995)">
<path d="M123.79 36.542C123.746 32.6535 123.79 28.7203 123.79 24.9211C123.835 18.4402 123.835 11.7358 123.656 5.07616V4.49512H116.55V30.5081C109.443 23.7143 100.012 22.3735 92.1457 27.2453C84.9943 31.6702 79.7649 41.3245 84.1004 52.9901C86.6481 59.5157 92.1457 63.9406 99.1629 65.1474C100.459 65.3709 101.755 65.5049 103.051 65.5049C109.264 65.5049 115.164 62.9573 119.142 58.443C123.969 53.303 123.88 45.3918 123.79 38.4193C123.79 37.7935 123.79 37.1678 123.79 36.542ZM116.281 45.213C116.013 54.2863 109.175 58.3536 102.962 58.3536C102.917 58.3536 102.917 58.3536 102.917 58.3536C98.716 58.1301 95.2744 56.5658 92.9055 53.7499C90.8495 51.2917 89.7321 47.9842 89.8215 44.4979C90.0897 35.3799 96.9728 31.2679 103.32 31.2679H103.364C109.756 31.6702 116.55 36.1845 116.281 45.213Z" fill="#0F0E0A"/>
<path d="M169.918 44.633C169.828 39.1801 168.04 34.3977 164.778 30.822C161.872 27.6486 157.805 25.4585 153.336 24.654C145.067 23.179 134.295 26.4418 130.183 37.0347C125.848 49.0132 131.435 58.6675 138.944 62.8689C141.893 64.5227 145.246 65.4166 148.508 65.4166C149.536 65.4166 150.609 65.3272 151.637 65.1484C155.928 64.4333 159.816 62.1985 163.035 58.6675V64.478H169.784L169.828 63.9416C170.096 59.3379 170.007 54.5108 169.962 49.8624C169.918 48.164 169.918 46.3762 169.918 44.633ZM162.498 44.7671C162.543 53.9744 155.704 58.3099 149.358 58.3993C140.284 58.2206 136.128 51.3374 136.083 44.9906C136.038 35.8726 142.743 31.4924 149.045 31.3137C155.481 31.3584 162.454 35.6045 162.498 44.7671Z" fill="#0F0E0A"/>
<path d="M199.373 25.1893C198.747 25.1893 198.121 25.1893 197.54 25.1893C196.244 25.1446 194.993 25.1446 193.741 25.234C174.88 26.8877 175.461 42.5313 175.997 56.387C176.086 59.0687 176.176 61.5717 176.176 63.9853V64.5663H183.148L183.193 64.03C183.327 60.946 183.238 57.8173 183.148 54.7779C182.925 46.9562 182.701 39.5814 186.769 35.5587C189.316 33.0558 193.473 31.9384 199.418 32.2065L199.999 32.2512V25.1893H199.373Z" fill="#0F0E0A"/>
<path d="M78.7815 34.7543C78.6921 34.5755 78.3345 33.8157 77.6194 32.6536L77.2171 32.0726L77.1724 32.1173C70.6915 23.2228 60.9031 23.0887 54.3775 25.8151C46.6452 29.0332 39.8514 37.302 41.9521 48.6547C41.5945 48.8782 41.0582 49.1911 40.1196 49.7721C36.4098 52.0963 28.6774 56.8787 24.9677 58.2643C20.1405 59.8287 15.1793 58.8007 11.6483 55.5826C7.80446 52.0516 6.3742 46.4646 7.75977 40.6542C9.05595 35.4694 12.9445 31.8491 18.2186 30.9552C23.5821 30.0166 28.9009 32.2513 31.8508 36.6315L32.2531 37.2126L36.7227 32.6983L36.4098 32.296C32.2531 26.6197 25.504 23.7144 18.2186 24.4743C10.8885 25.2788 4.63106 29.7484 1.85992 36.0952C-1.80514 44.9897 0.0273862 54.197 6.64237 60.1862C10.4415 63.6278 15.1793 65.371 20.0958 65.371C23.3586 65.371 26.7108 64.6111 29.8395 63.0021L29.8842 63.0468L44.0528 55.0015C47.2709 61.0355 53.3942 64.8793 60.6796 65.2816C67.9651 65.6838 74.5353 62.4657 78.2004 56.7L78.4686 56.2977L74.0437 51.9622L73.6414 52.5433C70.9597 56.6106 66.8924 58.8454 62.1546 58.8454C56.8805 58.8454 52.4556 56.1189 50.2655 51.4706L79.0943 35.1566L78.7815 34.7543ZM69.6635 32.9665L48.7906 44.7662C48.7459 39.0898 51.3829 34.5308 55.9866 32.162C57.9085 31.1786 60.0092 30.687 62.1099 30.687C64.747 30.687 67.384 31.4468 69.6635 32.9665Z" fill="#0F0E0A"/>
</g>
<defs>
<clipPath id="clip0_5499_6995">
<rect width="200" height="70" fill="white"/>
</clipPath>
</defs>
</svg>
